<svg xmlns="http://www.w3.org/2000/svg" xmlns:xlink="http://www.w3.org/1999/xlink">

  <symbol id="wifi" viewBox="0 0 36 36">
    <path d="M17.9998717,22.2522484 C19.8615336,22.2522484 21.5784907,22.8657708 22.9567774,23.8998201 C23.4483628,24.268543 23.4842824,24.9927838 23.0481158,25.4244842 L18.7254477,29.7028886 C18.3252007,30.0990371 17.675569,30.0990371 17.2742956,29.7028886 L12.9526539,25.4244842 C12.515461,24.9927838 12.5513806,24.268543 13.042966,23.8998201 C14.4212526,22.8657708 16.1382098,22.2522484 17.9998717,22.2522484 Z M17.9998717,14.1261242 C22.1408892,14.1261242 25.9247631,15.6436779 28.8126994,18.1465242 C29.267339,18.541657 29.3104426,19.2262829 28.8824861,19.6498572 L27.4262026,21.0902127 C27.0505862,21.4619829 26.4481631,21.4944874 26.047916,21.1511586 C23.8886346,19.3065284 21.0766425,18.1891863 17.9998717,18.1891863 C14.9231008,18.1891863 12.1100825,19.3065284 9.95182735,21.1521744 C9.5515803,21.4955031 8.94813092,21.4619829 8.57354074,21.0902127 L7.11725728,19.6498572 C6.68930083,19.2262829 6.73240435,18.541657 7.18704394,18.1465242 C10.0749803,15.6436779 13.8588542,14.1261242 17.9998717,14.1261242 Z M17.9998717,6 C24.4356389,6 30.2936135,8.44190033 34.6809368,12.4409692 C35.1047882,12.8279759 35.1027356,13.4933023 34.6963309,13.8955454 L33.2431263,15.3338694 C32.8490369,15.7239234 32.2230095,15.7208761 31.8114734,15.3511374 C28.1651203,12.0661517 23.3190522,10.0630621 17.9998717,10.0630621 C12.6806911,10.0630621 7.83462313,12.0661517 4.18826996,15.3511374 C3.7767339,15.7208761 3.15173275,15.7239234 2.75764335,15.3338694 L1.30443871,13.8955454 C0.897007751,13.4933023 0.894955203,12.8279759 1.31983283,12.4409692 C5.70612989,8.44190033 11.5651308,6 17.9998717,6 Z"></path>
  </symbol>

  <symbol id="channel-search" viewBox="0 0 90 70">
    <path fill-rule="evenodd" d="M43,17 C51.836556,17 59,24.163444 59,33 C59,36.516335 57.8656782,39.7677349 55.9429901,42.4082443 L62.8284271,49.2928932 C63.2189514,49.6834175 63.2189514,50.3165825 62.8284271,50.7071068 L60.7071068,52.8284271 C60.3165825,53.2189514 59.6834175,53.2189514 59.2928932,52.8284271 L52.4082443,45.9429901 C49.7677349,47.8656782 46.516335,49 43,49 C34.163444,49 27,41.836556 27,33 C27,24.163444 34.163444,17 43,17 Z M43,22 C36.9248678,22 32,26.9248678 32,33 C32,39.0751322 36.9248678,44 43,44 C49.0751322,44 54,39.0751322 54,33 C54,26.9248678 49.0751322,22 43,22 Z"></path>
  </symbol>

</svg>
