<svg xmlns="http://www.w3.org/2000/svg" xmlns:xlink="http://www.w3.org/1999/xlink">

  <symbol id="wifi" viewBox="0 0 40 40">
    <path d="M20,25 C21.1865565,25 22.3468323,25.2188111 23.4335487,25.6401742 C25.1177803,26.2932177 25.5747617,28.4620766 24.2972126,29.7391711 L24.2972126,29.7391711 L21.9091883,32.1263456 C20.8547727,33.1807612 19.1452273,33.1807612 18.0911657,32.1266995 L18.0911657,32.1266995 L15.7027501,29.7392402 C14.4251646,28.4621663 14.8821126,26.2932821 16.566347,25.6402147 C17.6530931,25.2188252 18.8134053,25 20,25 Z M20,16 C23.8286744,16 27.4888414,17.1683428 30.5655051,19.3121018 C31.6983392,20.1014383 31.976799,21.6596655 31.1874624,22.7924996 C30.3981258,23.9253337 28.8398986,24.2037934 27.7070645,23.4144569 C25.4624331,21.8504417 22.798182,21 20,21 C17.201715,21 14.5373714,21.8505045 12.2926911,23.4146272 C11.1598743,24.2039887 9.60164102,23.9255632 8.81227952,22.7927465 C8.02291803,21.6599298 8.3013435,20.1016964 9.43416021,19.312335 C12.5108904,17.1684292 16.1711844,16 20,16 Z M20,7 C26.3058739,7 32.2926389,9.13183092 37.123582,12.9805758 C38.2034804,13.8409158 38.3814676,15.4137897 37.5211277,16.4936881 C36.6607878,17.5735864 35.0879138,17.7515737 34.0080155,16.8912337 C30.054586,13.7415917 25.1637196,12 20,12 C14.8365823,12 9.94598333,13.741387 5.99266572,16.8906911 C4.91273424,17.7509894 3.33986718,17.5729416 2.47956882,16.4930101 C1.61927046,15.4130786 1.79731829,13.8402115 2.87724978,12.9799132 C7.70805721,9.13158045 13.6944953,7 20,7 Z"></path>
  </symbol>

  <symbol id="bluetooth" viewBox="0 0 40 40">
    <path d="M19,3 C19,2.19472012 19.8932135,1.73484126 20.5422954,2.15932752 L20.6332378,2.2260427 L31.6332378,11.2260427 C32.1065554,11.6133025 32.1187035,12.3206597 31.6873796,12.726591 L31.5881717,12.8087361 L21.7,20 L31.5881717,27.1912639 C32.0827584,27.5509633 32.1351372,28.2564831 31.7276107,28.6863001 L31.6332378,28.7739573 L20.6332378,37.7739573 C20.0099855,38.283891 19.0884424,37.8837945 19.0059535,37.1126321 L19,37 L19,21.963 L9.5881717,28.8087361 C9.17587698,29.1085868 8.61126238,29.0475102 8.27134413,28.6850351 L8.19126392,28.5881717 C7.89141322,28.175877 7.95248982,27.6112624 8.31496486,27.2713441 L8.4118283,27.1912639 L18.299,20 L8.4118283,12.8087361 C7.99953359,12.5088854 7.88367657,11.9529203 8.12378611,11.5178571 L8.19126392,11.4118283 C8.49111462,10.9995336 9.04707968,10.8836766 9.48214287,11.1237861 L9.5881717,11.1912639 L19,18.036 L19,3 Z"></path>
  </symbol>

  <symbol id="play" viewBox="0 0 40 40">
    <path d="M20,2 C29.9411255,2 38,10.0588745 38,20 C38,29.9411255 29.9411255,38 20,38 C10.0588745,38 2,29.9411255 2,20 C2,10.0588745 10.0588745,2 20,2 Z M18,13 C16.8954305,13 16,13.8954305 16,15 L16,15 L16,25 C16,25.4327404 16.1403557,25.8538077 16.4,26.2 C17.0627417,27.0836556 18.3163444,27.2627417 19.2,26.6 L19.2,26.6 L25.8666667,21.6 C26.018278,21.4862915 26.1529582,21.3516113 26.2666667,21.2 C26.9294084,20.3163444 26.7503223,19.0627417 25.8666667,18.4 L25.8666667,18.4 L19.2,13.4 C18.8538077,13.1403557 18.4327404,13 18,13 Z"></path>
  </symbol>

  <symbol id="detail" viewBox="0 0 40 40">
    <path d="M20,2 C29.9411255,2 38,10.0588745 38,20 C38,29.9411255 29.9411255,38 20,38 C10.0588745,38 2,29.9411255 2,20 C2,10.0588745 10.0588745,2 20,2 Z M20,18 C18.8954305,18 18,18.8954305 18,20 L18,20 L18,28 C18,29.1045695 18.8954305,30 20,30 C21.1045695,30 22,29.1045695 22,28 L22,28 L22,20 C22,18.8954305 21.1045695,18 20,18 Z M20,10 C18.6192881,10 17.5,11.1192881 17.5,12.5 C17.5,13.8807119 18.6192881,15 20,15 C21.3807119,15 22.5,13.8807119 22.5,12.5 C22.5,11.1192881 21.3807119,10 20,10 Z"></path>
  </symbol>

  <symbol id="episode" viewBox="0 0 40 40">
    <path d="M36,15 C37.1045695,15 38,15.8954305 38,17 L38,33 C38,34.1045695 37.1045695,35 36,35 L4,35 C2.8954305,35 2,34.1045695 2,33 L2,17 C2,15.8954305 2.8954305,15 4,15 L36,15 Z M33,9 C34.1045695,9 35,9.8954305 35,11 L35,13 L5,13 L5,11 C5,9.8954305 5.8954305,9 7,9 L33,9 Z M30,4 C31.1045695,4 32,4.8954305 32,6 L32,7 L8,7 L8,6 C8,4.8954305 8.8954305,4 10,4 L30,4 Z"></path>
  </symbol>

  <symbol id="like" viewBox="0 0 40 40">
    <path d="M28.2842712,4 C30.769331,4 33.2537932,4.9554371 35.1496019,6.86398323 C37.0162428,8.74316552 37.9653893,11.1958698 37.9990697,13.6583936 C38.0327341,16.1197564 37.152227,18.5921962 35.3545109,20.5124293 L35.3545109,20.5124293 L19.9999923,35.976284 L4.8682919,20.7429178 C2.9726289,18.7306057 2.02675232,16.2111229 2.02675232,13.7162932 C2.02675232,11.2195228 2.97509395,8.751887 4.85039806,6.86398323 C6.74620678,4.9554371 9.23066905,4 11.7157288,4 C14.2007885,4 16.6852507,4.9554371 18.5810594,6.86398323 C19.1360093,7.42266165 19.6089535,8.03123244 20.0000675,8.67494537 C20.3910465,8.03123244 20.8639907,7.42266165 21.4189406,6.86398323 C23.3147493,4.9554371 25.7992115,4 28.2842712,4 Z" stroke="#FFFFFF" stroke-width="4"></path>
  </symbol>

</svg>
