<svg xmlns="http://www.w3.org/2000/svg">
  <symbol id="logo" viewBox="0 0 480 480">
    <path fill-rule="evenodd" clip-rule="evenodd" d="M260 60H420V340C420 384.183 384.183 420 340 420H260H220H140C95.8172 420 60 384.183 60 340V280H140C184.183 280 220 315.817 220 360V410H260V60ZM60 60H80H110H130V70H110V100C110 105.523 105.523 110 100 110H80V70H60V60ZM140 60H160H170H190H200H210C215.523 60 220 64.4772 220 70V110H200V70H190V110H170V70H160V110H140V70V60Z" />
  </symbol>
  <symbol id="me" viewBox="0 0 512 512">
    <path fill-rule="evenodd" clip-rule="evenodd" d="M277.669 48.167C257.7 48.167 237.731 50.9887 220.367 55.9809C178.042 67.9188 138.538 96.3528 105.763 125.872C82.3211 146.926 54.9724 173.624 47.8097 204.879C42.6004 227.236 41.2981 250.244 41.5151 267.391C41.6667 282.395 47.6384 277.293 52.9281 272.773C55.2142 270.82 57.3729 268.976 58.8794 268.91C61.3292 268.799 60.0657 278.114 58.43 290.172C56.8774 301.618 54.9894 315.537 55.6236 326.212C56.1699 334.863 58.8175 344.889 61.659 355.65C65.5904 370.538 69.8929 386.831 69.515 402.832C69.2979 412.165 77.5459 412.599 78.4141 397.189C79.0825 384.045 80.4367 376.789 81.9195 369.906C82.3888 373.134 82.9563 376.575 83.6907 380.107C86.0115 391.269 90.06 403.666 98.2766 413.391C121.881 441.666 157.99 458.434 188.619 465.265L188.621 465.266C222.104 472.706 291.475 474.386 342.634 428.537C339.532 435.988 336.963 441.824 335.405 444.94C333.017 449.716 336.924 454.057 341.265 446.894C346.028 439.339 351.785 431.971 357.455 425.153C357.774 425.16 358.099 425.167 358.43 425.174C360.806 425.22 363.42 425.238 366.207 425.045C377.186 424.283 390.159 420.265 404.607 403.673C411.649 398.13 420.795 389.035 430.691 375.266C455.435 340.755 510.567 174.058 393.575 106.771C390.648 105.21 390.353 104.702 388.745 101.933C388.565 101.622 388.368 101.283 388.149 100.911C366.444 62.7096 321.731 48.384 277.669 48.167ZM88.4442 332.074C88.2925 337.329 88.278 343.412 88.6118 350.309C88.613 350.335 88.614 350.36 88.6148 350.386C88.7958 356.267 90.9289 359.469 93.3585 361.375C95.9717 363.425 99.4311 364.358 102.673 364.644L102.695 364.646L102.734 364.65C105.638 364.948 112.453 365.773 120.413 366.736L120.415 366.736L120.433 366.738L120.451 366.74C124.215 367.196 128.235 367.682 132.217 368.158C144.84 369.667 156.83 371.041 159.95 371.141C161.843 371.202 164.511 370.203 166.959 367.865C169.341 365.589 171.143 362.374 171.559 358.711L171.564 358.672C172.683 349.557 172.839 346.527 173.212 339.27L173.212 339.266C173.338 336.818 173.488 333.888 173.709 330.082L173.71 330.057C174.187 322.584 168.303 317.241 162.252 316.4L162.235 316.398C152.62 315.024 119.026 311.124 105.575 309.62C104.765 310.446 103.825 311.274 102.724 312.104C94.3297 318.561 90.4689 325.172 88.4442 332.074ZM88.2851 368.426C88.7569 371.725 89.3241 375.214 90.066 378.782C92.3027 389.539 96.0666 400.689 103.256 409.195L103.269 409.211C125.68 436.062 160.326 452.283 190.035 458.909C222.742 466.177 290.262 467.564 339.286 422.784L339.298 422.773C341.48 420.801 343.929 419.747 346.461 419.188C353.194 402.498 361.257 381.275 367.095 363.762C369.095 357.882 370.469 351.905 371.331 345.921L351.441 349.915C350.62 350.08 349.803 350.123 349.008 350.057C348.737 352.974 348.526 355.481 348.334 357.781L348.333 357.786L348.333 357.788V357.788C347.801 364.134 347.401 368.905 346.204 376.383C344.861 384.835 339.83 389.889 334.252 392.577C328.875 395.168 322.992 395.597 319.129 395.211C319.097 395.207 319.066 395.204 319.034 395.2C308.561 393.918 255.341 387.379 243.79 384.939C235.941 383.317 230.561 379.464 227.567 373.94C224.674 368.603 224.358 362.339 225.185 356.429L225.191 356.391L225.197 356.349L225.436 354.845L225.436 354.845L225.436 354.844C226.146 350.376 226.828 346.083 227.597 341.85C227.098 341.659 226.615 341.404 226.159 341.081C220.895 337.36 213.332 334.591 205.188 333.233C197.053 331.878 188.995 332.04 182.922 333.605C182.68 333.667 182.439 333.714 182.198 333.748C182.074 335.994 181.976 337.903 181.889 339.597C181.51 346.969 181.34 350.292 180.183 359.712C179.51 365.59 176.647 370.616 172.956 374.142C169.326 377.61 164.506 379.975 159.67 379.819C156.061 379.703 143.525 378.254 131.187 376.779C127.121 376.293 123.048 375.8 119.256 375.341L119.234 375.339L119.218 375.337L119.216 375.336L119.213 375.336C111.356 374.385 104.717 373.582 101.877 373.29C97.8324 372.929 92.6559 371.734 88.2851 368.426ZM372.499 327.975C372.337 307.748 367.545 288.472 362.754 273.685C358.215 259.745 353.071 250.526 349.401 243.948C348.157 241.718 347.082 239.792 346.258 238.089C345.05 235.673 343.979 236.275 342.39 237.169C341.981 237.4 341.538 237.649 341.048 237.872C330.976 243.04 320.905 243.435 306.584 243.995C297.45 244.353 286.587 244.779 272.894 246.554C228.458 252.273 194.922 258.884 167.197 267.124C168.206 267.784 169.172 268.459 170.093 269.145C173.209 271.469 175.853 273.964 177.835 276.494C179.793 278.992 181.245 281.704 181.69 284.45C181.978 286.225 180.773 287.897 178.998 288.185C177.223 288.473 175.551 287.268 175.263 285.493C175.057 284.223 174.285 282.52 172.71 280.51C171.16 278.531 168.964 276.426 166.2 274.365C164.023 272.741 161.528 271.172 158.78 269.732C148.769 272.965 139.507 276.441 130.724 280.197C115.153 286.76 113.163 293.017 111.183 299.241C110.95 299.973 110.717 300.703 110.463 301.434C125.663 303.156 154.53 306.528 163.455 307.802C170.317 308.758 177.485 313.419 180.692 320.743C188.737 318.866 198.268 318.877 207.329 320.387C215.453 321.741 223.686 324.382 230.493 328.393C232.111 322.494 235.225 318.444 239.283 315.946C243.409 313.407 248.06 312.752 252.058 312.752C254.688 312.752 257.115 312.989 259.542 313.468C263.278 314.043 272.197 315.032 282.536 316.179L282.536 316.179L282.567 316.182C285.609 316.52 288.773 316.87 291.964 317.228C305.88 318.79 320.394 320.494 326.499 321.737C334.16 323.271 340.231 326.322 344.243 330.844C344.984 331.679 345.644 332.553 346.223 333.459C346.789 333.21 347.391 333.017 348.022 332.891L372.499 327.975ZM365.756 418.549C364.8 418.615 363.861 418.654 362.934 418.675C363.904 417.542 364.86 416.431 365.796 415.342L365.813 415.322C371.863 408.289 377.093 402.209 379.901 397.623C380.71 396.312 381.619 394.785 382.597 393.144C389.229 382.014 399.014 365.592 402.04 375.049C405.055 384.469 403.817 393.235 395.916 403.475C384.212 415.289 374.11 417.969 365.756 418.549ZM360.583 123.702C371.002 123.267 385.11 128.694 388.8 134.554C390.314 137.032 386.329 136.629 382.324 136.224C380.014 135.99 377.698 135.756 376.428 136.074C373.988 136.655 375.156 137.298 377.767 138.736C380.033 139.984 383.387 141.831 386.412 144.756C393.141 151.05 386.847 152.136 379.033 149.965C371.365 148.007 361.245 147.031 353.649 146.297C351.139 146.055 348.905 145.84 347.126 145.624C340.667 144.756 334.935 144.659 330.921 144.591C325.897 144.507 323.562 144.467 325.855 143.019C330.684 139.887 344.383 139.109 354.018 138.562C360.406 138.199 365.008 137.938 364.056 137.159C361.881 135.528 355.783 134.605 350.758 133.844C345.753 133.087 341.812 132.49 343.87 131.515C348.534 129.243 354.714 129.475 358.924 129.633C362.355 129.761 364.477 129.841 363.405 128.477C362.389 127.257 359.756 126.561 357.754 126.032C355.48 125.431 354.021 125.045 356.676 124.353C357.438 124.048 358.306 123.957 359.281 123.855C359.696 123.812 360.13 123.766 360.583 123.702ZM181.411 420.794C180.782 419.773 179.445 419.454 178.425 420.083C177.404 420.711 177.085 422.048 177.714 423.069C179.907 426.634 184.845 429.163 189.942 430.166C195.125 431.185 201.185 430.775 205.933 427.652C206.935 426.993 207.212 425.647 206.554 424.645C205.895 423.644 204.549 423.366 203.547 424.025C200.047 426.327 195.254 426.786 190.779 425.906C186.218 425.009 182.69 422.872 181.411 420.794ZM197.063 369.257C197.384 370.412 196.708 371.608 195.553 371.929C190.152 373.429 185.23 377.17 183.146 381.222C182.127 383.203 181.835 385.146 182.323 386.941C182.81 388.731 184.159 390.691 187.031 392.54C188.039 393.189 188.329 394.532 187.68 395.54C187.031 396.548 185.688 396.839 184.68 396.19C181.148 393.915 178.97 391.153 178.135 388.08C177.3 385.012 177.89 381.949 179.286 379.236C182.031 373.9 188.07 369.502 194.391 367.746C195.546 367.426 196.742 368.102 197.063 369.257ZM247.993 292.565C250.792 287.247 256.251 282.786 263.462 279.871C270.646 276.967 279.344 275.699 288.222 276.598C305.901 278.389 324.041 288.718 332.347 311.483C332.964 313.172 334.833 314.042 336.522 313.425C338.211 312.809 339.081 310.94 338.465 309.251C329.189 283.83 308.694 272.127 288.878 270.12C279.008 269.12 269.242 270.511 261.022 273.834C252.829 277.146 245.943 282.479 242.231 289.533C241.393 291.124 242.004 293.093 243.596 293.93C245.187 294.768 247.156 294.157 247.993 292.565ZM94.5478 339.504C95.5483 340.213 96.812 340.278 97.8444 339.781C97.2648 346.679 101.841 353.889 107.502 355.947C116.618 359.203 129.424 354.862 131.812 345.095C133.187 339.87 133.081 332.206 129.287 327.401C136.809 330.221 143.834 336.702 148.433 345.901C149.238 347.509 151.193 348.161 152.801 347.357C154.41 346.553 155.062 344.597 154.258 342.989C148.16 330.793 137.925 322.115 126.553 319.871C114.96 317.583 102.882 322.121 93.7752 334.965C92.7351 336.431 93.081 338.464 94.5478 339.504ZM109.889 332.506C110.106 332.506 110.323 332.56 110.54 332.614C110.758 332.668 110.975 332.723 111.192 332.723C112.711 333.374 115.316 336.63 114.013 339.451C113.579 340.32 112.928 341.188 112.277 341.839C113.145 342.273 114.23 343.141 114.664 344.444C115.533 347.265 111.409 348.785 109.889 346.831C109.238 346.18 109.238 344.444 109.672 343.141C108.587 343.358 107.502 343.141 106.416 342.49C103.378 340.537 104.246 337.064 105.114 335.544C105.982 332.723 108.37 332.289 109.889 332.506ZM249.15 354.642C250.321 355.094 251.593 354.822 252.475 354.046C252.629 357.456 253.785 361.18 256.615 364.625C263.343 372.656 275.281 373.09 282.227 367.013C286.351 363.54 291.994 356.594 288.304 345.958C287.4 343.504 286.092 341.626 284.546 340.199C289.229 342.034 293.655 344.881 297.232 348.331C301.555 352.5 304.454 357.363 305.282 362.144C305.589 363.916 307.273 365.103 309.045 364.797C310.817 364.49 312.005 362.805 311.698 361.033C310.572 354.528 306.77 348.483 301.753 343.644C296.719 338.79 290.275 334.96 283.501 332.962C276.732 330.965 269.428 330.743 262.851 333.422C256.191 336.135 250.657 341.67 247.282 350.434C246.635 352.112 247.472 353.996 249.15 354.642ZM260.739 346.393H262.258C266.816 347.261 267.25 350.299 266.382 354.423C266.382 354.641 266.165 354.858 266.165 354.858C267.684 355.292 269.204 356.594 268.987 358.765C268.77 361.369 265.08 362.454 263.777 360.501C263.126 359.633 262.909 358.548 262.909 357.462C261.39 358.113 259.436 358.113 257.917 356.594C255.529 354.206 255.529 351.168 256.615 348.78C257.483 347.261 259.219 346.61 260.739 346.393ZM238.698 331.346C239.765 326.899 241.752 324.621 243.833 323.34C246.055 321.973 248.893 321.434 252.058 321.434C254.168 321.434 256.053 321.624 257.935 322.001C257.996 322.013 258.058 322.024 258.119 322.034C262.01 322.639 271.308 323.67 281.792 324.832L281.795 324.832L281.796 324.832L281.882 324.842C284.858 325.172 287.928 325.512 290.996 325.857C305.129 327.442 319.152 329.101 324.772 330.246L324.787 330.249C331.23 331.537 335.359 333.912 337.748 336.606C340.062 339.213 341.064 342.468 340.641 346.36L340.636 346.404C340.197 350.866 339.907 354.336 339.654 357.366L339.654 357.367L339.653 357.369L339.653 357.372L339.653 357.373L339.653 357.374L339.653 357.374C339.139 363.517 338.776 367.858 337.631 375.011L337.63 375.017C336.802 380.236 333.911 383.103 330.483 384.756C326.872 386.496 322.689 386.833 320.038 386.576C309.128 385.24 256.605 378.775 245.576 376.442L245.555 376.438C239.736 375.237 236.763 372.688 235.2 369.803C233.539 366.738 233.094 362.597 233.778 357.672L233.992 356.325C235.425 347.308 236.675 339.437 238.688 331.386L238.698 331.346Z" />
  </symbol>
  <symbol id="behance" viewBox="0 0 32 32">
    <path fill-rule="evenodd" clip-rule="evenodd" d="M15.9636 0H16.0364C24.8529 0 32 7.14713 32 15.9636V16.0364C32 24.8529 24.8529 32 16.0364 32H15.9636C7.14713 32 0 24.8529 0 16.0364V15.9636C0 7.14713 7.14713 0 15.9636 0ZM13.5895 15.786C13.9817 15.9845 14.3319 16.278 14.6377 16.6616V16.6628C15.1347 17.2868 15.3863 18.0033 15.3863 18.7938C15.3863 19.4684 15.2075 20.0862 14.856 20.6301C14.5058 21.1715 13.9952 21.6031 13.3404 21.9114C12.6979 22.2148 11.9431 22.3689 11.0984 22.3689H5.9398V9.6334H10.8715C11.7384 9.6334 12.4993 9.78385 13.1307 10.0811C13.7757 10.3844 14.2715 10.8013 14.6044 11.3205C14.9387 11.8396 15.1076 12.4279 15.1076 13.0679C15.1076 13.835 14.8967 14.4874 14.4811 15.0078C14.2345 15.3161 13.936 15.5751 13.5895 15.786ZM10.6976 14.7131C11.2686 14.7131 11.7138 14.5873 12.0184 14.3406C12.3069 14.1075 12.4475 13.7598 12.4475 13.3109C12.4475 12.862 12.3057 12.5229 12.0134 12.2774C11.7088 12.0209 11.2661 11.8914 10.6976 11.8914H8.5641V14.7131H10.6976ZM10.8542 16.9723H8.5641V20.1072H10.9233C11.5152 20.1072 11.9777 19.9691 12.2995 19.6965C12.6103 19.4338 12.7608 19.0824 12.7608 18.5842C12.7608 18.0859 12.598 17.7049 12.2638 17.4175C11.9148 17.1178 11.4536 16.9723 10.8542 16.9723ZM23.7897 12.851C24.5025 13.2481 25.0649 13.8141 25.462 14.5318C25.8591 15.2496 26.0601 16.0857 26.0601 17.018C26.0601 17.3769 26.0366 17.7074 25.9898 17.9997L25.9836 18.0404H18.6681C18.7335 18.7667 19.0134 19.3587 19.5005 19.8014C20 20.254 20.6215 20.4846 21.3479 20.4846C22.3912 20.4846 23.1373 20.0431 23.5677 19.1712L23.5813 19.1441H25.8184L25.7974 19.207C25.5051 20.0937 24.9699 20.8312 24.2053 21.3972C23.4407 21.9633 22.48 22.2506 21.3491 22.2506C20.4279 22.2506 19.5918 22.041 18.863 21.6266C18.1329 21.2122 17.5533 20.6203 17.1389 19.868C16.7245 19.117 16.5149 18.2328 16.5149 17.2437C16.5149 16.2547 16.7184 15.3717 17.1204 14.6194C17.5224 13.8659 18.0971 13.2776 18.8272 12.8682C19.556 12.46 20.4403 12.2528 21.3479 12.2528C22.2556 12.2528 23.0781 12.4539 23.7897 12.851ZM21.2603 14.0201C20.5919 14.0201 20.0111 14.2346 19.5351 14.6601L19.5363 14.6613C19.0726 15.0757 18.7877 15.6417 18.6891 16.3435H23.8921C23.8699 15.6528 23.6121 15.0893 23.1262 14.67C22.6268 14.2383 21.9991 14.0201 21.2603 14.0201ZM23.7229 9.92705H18.8504V11.0817H23.7229V9.92705Z" />
  </symbol>
  <symbol id="pinterest" viewBox="0 0 32 32">
    <path fill-rule="evenodd" clip-rule="evenodd" d="M15.9636 0H16.0364C24.8529 0 32 7.14713 32 15.9636V16.0364C32 24.8529 24.8529 32 16.0364 32H15.9636C7.14713 32 0 24.8529 0 16.0364V15.9636C0 7.14713 7.14713 0 15.9636 0ZM14.5194 20.443C14.5259 20.4214 14.5326 20.3989 14.5394 20.3751V20.374C14.5828 20.4275 14.6235 20.4806 14.6634 20.5325C14.7463 20.6406 14.8257 20.7439 14.9173 20.837C16.6808 22.6319 20.5027 22.438 22.8604 19.5141C24.9098 16.9692 25.0701 13.3693 24.847 11.9096C24.3582 8.70431 21.7449 5.87911 17.6102 5.40936C14.1482 5.01697 10.3566 6.31074 8.31838 9.50704C6.47863 12.3928 6.87662 15.801 8.26793 17.5241C8.67601 18.0309 9.1794 18.4154 9.78368 18.6598C10.092 18.7854 10.5774 18.6744 10.6626 18.3694C10.735 18.1105 10.7988 17.8493 10.8627 17.5881C10.8997 17.4366 10.9367 17.285 10.9754 17.134C11.0204 16.96 10.8666 16.8311 10.6971 16.689C10.6088 16.615 10.5162 16.5373 10.4451 16.4479C8.80607 14.3917 9.63121 9.89382 13.2603 8.21551C16.4252 6.75022 21.4153 7.73342 21.6843 12.284C21.8211 14.5666 21.1025 17.7865 19.2504 19.1296C17.2425 20.587 14.8926 19.1677 15.396 17.1721C15.5796 16.4409 15.7801 15.7811 15.9622 15.1819C16.3824 13.7986 16.7047 12.7381 16.4958 11.8659C16.0104 9.84449 13.2322 10.0317 12.4587 12.4825C12.101 13.617 12.1817 14.737 12.5909 15.8402C12.6268 15.9389 12.6549 16.0297 12.6302 16.1395C12.3452 17.3377 12.1032 18.3487 11.8976 19.2078C10.8703 23.4997 10.7506 23.9998 10.7142 25.104C10.6806 26.122 10.7579 27.1321 10.8969 28.14C10.8975 28.1439 10.898 28.1478 10.8985 28.1517C10.9113 28.2507 10.9254 28.3585 11.0483 28.3844C11.1517 28.4053 11.2066 28.3318 11.2584 28.2625C11.265 28.2536 11.2715 28.2449 11.2781 28.2364C11.795 27.5727 12.2625 26.8787 12.6773 26.1466C13.4109 24.8477 13.5928 24.1204 14.1393 21.936C14.2409 21.5299 14.3552 21.0733 14.4879 20.5534C14.4972 20.5175 14.5079 20.4816 14.5194 20.443Z" />
  </symbol>
  <symbol id="twitter" viewBox="0 0 32 32">
    <path fill-rule="evenodd" clip-rule="evenodd" d="M18.2265 31.8464C26.0078 30.7623 31.9978 24.0816 31.9978 16.0006H32C32 7.16393 24.8363 0 16 0C7.16368 0 0 7.16393 0 16.0006C0 23.9638 5.81838 30.5695 13.4361 31.796C14.2702 31.9305 15.1267 32 15.9989 32C16.7545 32 17.4989 31.9473 18.2265 31.8464ZM13.868 16.9232L6.48903 7.05742H6.49014H12.1774L17.0148 13.5251L23.0014 7.05742H24.6729L17.7614 14.524L25.5552 24.9448H19.868L14.6157 17.9221L8.1146 24.9448H6.44307L13.868 16.9232ZM11.5585 8.2884H8.94643L20.4834 23.7138H23.0955L11.5585 8.2884Z"/>
  </symbol>
  <symbol id="github" viewBox="0 0 32 32">
    <g clip-path="url(#clip0_3887_2659)">
      <path fill-rule="evenodd" clip-rule="evenodd" d="M16.0132 0C7.15833 0 0 7.2111 0 16.1322C0 23.2633 4.58659 29.2997 10.9494 31.4361C11.7449 31.5968 12.0363 31.089 12.0363 30.6619C12.0363 30.2879 12.0101 29.006 12.0101 27.6703C7.5556 28.632 6.62799 25.7472 6.62799 25.7472C5.91212 23.8776 4.85143 23.3971 4.85143 23.3971C3.39348 22.4088 4.95763 22.4088 4.95763 22.4088C6.57489 22.5157 7.4235 24.0648 7.4235 24.0648C8.85491 26.5218 11.1615 25.8275 12.0894 25.4001C12.2218 24.3584 12.6463 23.6373 13.097 23.2368C9.54422 22.8628 5.80625 21.474 5.80625 15.2774C5.80625 13.5146 6.44214 12.0724 7.44973 10.9507C7.29075 10.5502 6.73386 8.89391 7.60903 6.67715C7.60903 6.67715 8.96111 6.24973 12.0098 8.33309C13.315 7.97996 14.6611 7.80032 16.0132 7.79881C17.3653 7.79881 18.7436 7.98597 20.0164 8.33309C23.0654 6.24973 24.4175 6.67715 24.4175 6.67715C25.2926 8.89391 24.7354 10.5502 24.5764 10.9507C25.6106 12.0724 26.2202 13.5146 26.2202 15.2774C26.2202 21.474 22.4823 22.8359 18.9029 23.2368C19.4864 23.7442 19.9898 24.7056 19.9898 26.2281C19.9898 28.3914 19.9636 30.1277 19.9636 30.6616C19.9636 31.089 20.2553 31.5968 21.0505 31.4365C27.4133 29.2994 31.9999 23.2633 31.9999 16.1322C32.0262 7.2111 24.8416 0 16.0132 0Z"/>
    </g>
    <defs>
      <clipPath id="clip0_3887_2659">
        <rect width="32" height="32"/>
      </clipPath>
    </defs>
  </symbol>
  <symbol id="instagram" viewBox="0 0 32 32">
    <path fill-rule="evenodd" clip-rule="evenodd" d="M15.9636 0H16.0364C24.8529 0 32 7.14713 32 15.9636V16.0364C32 24.8529 24.8529 32 16.0364 32H15.9636C7.14713 32 0 24.8529 0 16.0364V15.9636C0 7.14713 7.14713 0 15.9636 0ZM11.0497 6.51035H20.9513C23.6869 6.51035 25.9123 8.73577 25.9123 11.4713V20.5299C25.9123 23.2654 23.6869 25.4908 20.9513 25.4908H11.0497C8.31413 25.4908 6.08872 23.2654 6.08872 20.5299V11.4713C6.08872 8.73577 8.31413 6.51035 11.0497 6.51035ZM11.0497 8.26041C9.27942 8.26041 7.83878 9.70105 7.83878 11.4713V20.5299C7.83878 22.3001 9.27942 23.7408 11.0497 23.7408H20.9513C22.7216 23.7408 24.1622 22.3001 24.1622 20.5299V11.4713C24.1622 9.70105 22.7216 8.26041 20.9513 8.26041H11.0497ZM20.6151 15.9996C20.6151 18.5445 18.5444 20.6141 16.0006 20.6141C13.4557 20.6141 11.3861 18.5445 11.3861 15.9996C11.3861 13.4546 13.4557 11.3851 16.0006 11.3851C18.5455 11.3851 20.6151 13.4546 20.6151 15.9996ZM18.865 16.0007C18.865 14.421 17.5803 13.1362 16.0006 13.1362C14.4209 13.1362 13.1361 14.421 13.1361 16.0007C13.1361 17.5803 14.4209 18.8651 16.0006 18.8651C17.5803 18.8651 18.865 17.5803 18.865 16.0007ZM21.0423 12.1307C21.7273 12.1307 22.2856 11.5735 22.2856 10.8874C22.2856 10.2012 21.7284 9.64404 21.0423 9.64404C20.3562 9.64404 19.799 10.2012 19.799 10.8874C19.799 11.5735 20.3562 12.1307 21.0423 12.1307Z"/>
  </symbol>
</svg>