<svg xmlns="http://www.w3.org/2000/svg" xmlns:xlink="http://www.w3.org/1999/xlink">
  <symbol id="logo" viewBox="0 0 48 48">
    <path fill-rule="evenodd" clip-rule="evenodd" d="M26.0314 4.51562C24.1593 4.51562 22.2872 4.78016 20.6593 5.24818C16.6913 6.36736 12.9879 9.03305 9.91522 11.8005C7.71756 13.7743 5.15362 16.2772 4.48211 19.2074C3.99374 21.3033 3.87165 23.4603 3.892 25.0679C3.90621 26.4745 4.46605 25.9962 4.96196 25.5725C5.17628 25.3894 5.37866 25.2164 5.5199 25.2103C5.74956 25.1999 5.63111 26.0731 5.47776 27.2036C5.33221 28.2767 5.15521 29.5815 5.21466 30.5824C5.26589 31.3934 5.5141 32.3334 5.78049 33.3421C6.14905 34.7379 6.55242 36.2654 6.51698 37.7655C6.49663 38.6405 7.26989 38.6812 7.35128 37.2364C7.41393 36.0042 7.54089 35.3239 7.67991 34.6786C7.7239 34.9812 7.7771 35.3039 7.84596 35.635C8.06353 36.6814 8.44308 37.8436 9.21339 38.7554C11.4263 41.4062 14.8115 42.9782 17.683 43.6186L17.6832 43.6186C20.8222 44.3162 27.3258 44.4737 32.1218 40.1753C31.831 40.8738 31.5903 41.4209 31.4442 41.7131C31.2203 42.1608 31.5866 42.5678 31.9936 41.8963C32.4401 41.188 32.9798 40.4972 33.5114 39.858L33.6028 39.86C33.8255 39.8644 34.0706 39.8661 34.3318 39.8479C35.3612 39.7765 36.5773 39.3998 37.9318 37.8443C38.592 37.3247 39.4495 36.472 40.3773 35.1812C42.697 31.9457 47.8656 16.3179 36.8976 10.0098C36.6232 9.86341 36.5955 9.81575 36.4448 9.55613C36.4279 9.52702 36.4094 9.49525 36.3889 9.46037C34.354 5.87899 30.1622 4.53597 26.0314 4.51562ZM8.2916 31.1318C8.27738 31.6246 8.27601 32.1949 8.30731 32.8417L8.30766 32.8488H8.30759C8.32456 33.4002 8.52454 33.7004 8.75232 33.8791C8.9973 34.0713 9.32162 34.1588 9.62552 34.1856L9.63128 34.1861L9.63128 34.1862C9.90343 34.2141 10.5421 34.2913 11.2882 34.3816L11.2889 34.3817L11.2893 34.3818L11.2917 34.382C11.6448 34.4248 12.0218 34.4704 12.3953 34.515C13.5787 34.6565 14.7028 34.7853 14.9953 34.7947C15.1727 34.8004 15.4229 34.7067 15.6523 34.4875C15.8757 34.2741 16.0446 33.9728 16.0836 33.6294L16.084 33.6257L16.084 33.6257C16.189 32.7712 16.2036 32.4871 16.2385 31.8068C16.2503 31.5772 16.2645 31.3024 16.2852 30.9454L16.2853 30.943C16.33 30.2425 15.7784 29.7415 15.2111 29.6627L15.2095 29.6625C14.308 29.5337 11.1583 29.168 9.8974 29.0271C9.82155 29.1044 9.73349 29.1819 9.63034 29.2597C8.84338 29.8651 8.48142 30.4848 8.2916 31.1318ZM8.27672 34.5402C8.32094 34.8493 8.37411 35.1763 8.44364 35.5107C8.65333 36.5193 9.00619 37.5646 9.68023 38.362L9.68145 38.3635C11.7825 40.8808 15.0305 42.4015 17.8157 43.0227C20.8821 43.7041 27.212 43.8341 31.808 39.636L31.8092 39.6349C32.0137 39.45 32.2433 39.3512 32.4807 39.2989C33.1119 37.7342 33.8678 35.7445 34.4151 34.1027C34.6026 33.5515 34.7313 32.9912 34.8122 32.4303L32.9475 32.8048C32.8706 32.8202 32.794 32.8243 32.7195 32.8181C32.694 33.0916 32.6743 33.3267 32.6562 33.5423L32.6562 33.5427V33.5427C32.6063 34.1376 32.5688 34.5848 32.4567 35.2856C32.3309 36.0783 31.8591 36.5522 31.3361 36.8043C30.832 37.0472 30.2805 37.0874 29.9183 37.0512L29.9094 37.0503L29.9094 37.0502C28.9276 36.93 23.9381 36.317 22.8553 36.0882C22.1194 35.9361 21.615 35.575 21.3344 35.0571C21.0632 34.5567 21.0335 33.9695 21.1111 33.4154L21.1121 33.4079L21.1122 33.4079L21.1346 33.2669L21.1346 33.2668C21.2011 32.8479 21.2651 32.4453 21.3372 32.0484C21.2904 32.0305 21.2451 32.0066 21.2023 31.9763C20.7088 31.6275 19.9998 31.3679 19.2363 31.2406C18.4737 31.1135 17.7182 31.1288 17.1489 31.2754C17.1262 31.2812 17.1036 31.2857 17.081 31.2889C17.0694 31.4993 17.0602 31.6782 17.0521 31.837L17.0521 31.8374C17.0166 32.5285 17.0006 32.8401 16.8921 33.7232C16.829 34.2743 16.5606 34.7455 16.2146 35.076C15.8743 35.4012 15.4224 35.6229 14.969 35.6082C14.6307 35.5973 13.4554 35.4615 12.2987 35.3232C11.9174 35.2776 11.5354 35.2314 11.1799 35.1884L11.1765 35.188L11.1763 35.188C10.4397 35.0988 9.81717 35.0235 9.55098 34.9961C9.17177 34.9623 8.68648 34.8503 8.27672 34.5402ZM34.9217 30.7479C34.9066 28.8515 34.4574 27.0442 34.0081 25.658C33.5826 24.3511 33.1003 23.4868 32.7563 22.8701C32.6396 22.6611 32.5389 22.4805 32.4616 22.3208C32.3484 22.0943 32.248 22.1508 32.0991 22.2346L32.099 22.2346L32.099 22.2346C32.0607 22.2562 32.0191 22.2796 31.9732 22.3004C31.029 22.785 30.0848 22.822 28.7422 22.8745H28.7422C27.8859 22.9081 26.8675 22.948 25.5837 23.1144C21.4179 23.6506 18.2739 24.2704 15.6746 25.0428C15.7693 25.1047 15.8599 25.168 15.9461 25.2323C16.2383 25.4502 16.4862 25.6841 16.672 25.9213C16.8555 26.1554 16.9917 26.4097 17.0334 26.6672C17.0604 26.8336 16.9474 26.9904 16.781 27.0173C16.6146 27.0443 16.4578 26.9313 16.4308 26.7649C16.4115 26.6459 16.3392 26.4862 16.1915 26.2978C16.0462 26.1123 15.8404 25.9149 15.5812 25.7217C15.3771 25.5695 15.1432 25.4223 14.8856 25.2873C13.947 25.5905 13.0788 25.9163 12.2553 26.2684C10.7956 26.8837 10.6089 27.4704 10.4233 28.0538C10.4015 28.1225 10.3797 28.191 10.3558 28.2596C11.7812 28.4211 14.4888 28.7373 15.3246 28.8568C15.9676 28.9466 16.6392 29.3835 16.9398 30.0697C17.694 29.8937 18.5876 29.8947 19.437 30.0363C20.1987 30.1633 20.9706 30.4108 21.6088 30.7869C21.7604 30.2339 22.0523 29.8543 22.4327 29.6202C22.8196 29.3821 23.2556 29.3207 23.6304 29.3207C23.877 29.3207 24.1045 29.3429 24.332 29.3878C24.6823 29.4418 25.5184 29.5345 26.4877 29.642L26.4883 29.642C26.7742 29.6737 27.0716 29.7067 27.3716 29.7404C28.6761 29.8867 30.0367 30.0465 30.6091 30.163C31.3274 30.3068 31.8965 30.5928 32.2727 31.0168C32.3422 31.0951 32.4041 31.177 32.4584 31.262C32.5114 31.2386 32.5678 31.2206 32.627 31.2087L34.9217 30.7479ZM34.2896 39.2389C34.2 39.2452 34.1119 39.2488 34.025 39.2507C34.1154 39.1452 34.2045 39.0416 34.2918 38.9401L34.2927 38.939L34.295 38.9364C34.8622 38.277 35.3524 37.7071 35.6157 37.2771C35.6915 37.1543 35.7767 37.0112 35.8683 36.8574L35.8685 36.8572C36.4902 35.8138 37.4075 34.2742 37.6912 35.1608C37.9738 36.0439 37.8578 36.8657 37.1171 37.8258C36.0198 38.9333 35.0727 39.1846 34.2896 39.2389ZM33.8046 11.597C34.7814 11.5563 36.104 12.065 36.45 12.6144C36.5919 12.8467 36.2183 12.8089 35.8428 12.771C35.6263 12.7491 35.4092 12.7271 35.2901 12.7569C35.0613 12.8113 35.1708 12.8716 35.4156 13.0065C35.6281 13.1235 35.9425 13.2966 36.2261 13.5708C36.8569 14.1609 36.2668 14.2627 35.5343 14.0592C34.8154 13.8757 33.8667 13.7841 33.1546 13.7154C32.9193 13.6926 32.7098 13.6724 32.543 13.6522C31.9375 13.5709 31.4002 13.5618 31.0238 13.5554C30.5528 13.5475 30.3339 13.5438 30.5488 13.408C31.0016 13.1144 32.2858 13.0414 33.1891 12.9901C33.788 12.9561 34.2194 12.9316 34.1302 12.8586C33.9263 12.7057 33.3546 12.6192 32.8835 12.5479C32.4143 12.4768 32.0449 12.4209 32.2378 12.3295C32.6751 12.1165 33.2544 12.1382 33.6491 12.153C33.9707 12.1651 34.1697 12.1726 34.0692 12.0447C33.9739 11.9304 33.727 11.8651 33.5394 11.8155C33.3262 11.7591 33.1894 11.723 33.4383 11.658C33.5097 11.6295 33.5911 11.621 33.6825 11.6114C33.7214 11.6073 33.7621 11.6031 33.8046 11.597ZM17.0072 39.4497C16.9483 39.3539 16.823 39.3241 16.7272 39.383C16.6315 39.4419 16.6017 39.5672 16.6606 39.6629C16.8663 39.9972 17.3291 40.2343 17.807 40.3283C18.2929 40.4238 18.861 40.3854 19.3062 40.0926C19.4001 40.0308 19.4261 39.9046 19.3643 39.8107C19.3026 39.7169 19.1764 39.6908 19.0825 39.7526C18.7544 39.9684 18.305 40.0114 17.8855 39.9289C17.4578 39.8449 17.1271 39.6445 17.0072 39.4497ZM18.4746 34.6181C18.5047 34.7264 18.4413 34.8385 18.333 34.8686C17.8267 35.0092 17.3653 35.36 17.1699 35.7398C17.0743 35.9256 17.047 36.1077 17.0928 36.276C17.1384 36.4438 17.2649 36.6275 17.5341 36.8009C17.6285 36.8617 17.6558 36.9876 17.595 37.0821C17.5341 37.1766 17.4082 37.2039 17.3137 37.143C16.9826 36.9298 16.7784 36.6709 16.7001 36.3828C16.6218 36.0951 16.6772 35.8079 16.808 35.5536C17.0653 35.0534 17.6315 34.6411 18.2241 34.4765C18.3324 34.4464 18.4445 34.5098 18.4746 34.6181ZM23.2493 27.428C23.5117 26.9294 24.0235 26.5111 24.6995 26.2379C25.3731 25.9656 26.1884 25.8468 27.0207 25.9311C28.6782 26.099 30.3788 27.0673 31.1575 29.2015C31.2153 29.3598 31.3905 29.4414 31.5489 29.3836C31.7073 29.3258 31.7888 29.1506 31.731 28.9922C30.8615 26.609 28.94 25.5119 27.0823 25.3237C26.1569 25.23 25.2414 25.3604 24.4708 25.6719C23.7027 25.9824 23.0571 26.4824 22.7091 27.1437C22.6306 27.2928 22.6879 27.4774 22.837 27.5559C22.9862 27.6344 23.1708 27.5771 23.2493 27.428ZM8.86381 31.8284C8.95761 31.8949 9.07608 31.901 9.17286 31.8545C9.11853 32.5011 9.54755 33.1771 10.0782 33.37C10.9329 33.6753 12.1335 33.2683 12.3573 32.3526C12.4862 31.8628 12.4763 31.1443 12.1207 30.6938C12.8258 30.9582 13.4844 31.5658 13.9156 32.4282C13.991 32.5789 14.1743 32.64 14.3251 32.5647C14.4759 32.4893 14.537 32.3059 14.4616 32.1551C13.8899 31.0118 12.9305 30.1982 11.8643 29.9878C10.7775 29.7734 9.64516 30.1988 8.79138 31.4029C8.69387 31.5404 8.7263 31.7309 8.86381 31.8284ZM10.3021 31.1724C10.3224 31.1724 10.3428 31.1775 10.3631 31.1825C10.3835 31.1876 10.4038 31.1927 10.4242 31.1927C10.5666 31.2538 10.8108 31.559 10.6887 31.8235C10.648 31.9049 10.587 31.9863 10.5259 32.0474C10.6073 32.0881 10.7091 32.1695 10.7497 32.2916C10.8311 32.5561 10.4445 32.6985 10.3021 32.5154C10.241 32.4543 10.241 32.2916 10.2817 32.1695C10.18 32.1898 10.0782 32.1695 9.9765 32.1084C9.69162 31.9253 9.77301 31.5997 9.8544 31.4573C9.9358 31.1927 10.1596 31.152 10.3021 31.1724ZM23.3577 33.248C23.4676 33.2903 23.5868 33.2648 23.6694 33.192C23.6839 33.5117 23.7923 33.8609 24.0576 34.1838C24.6884 34.9367 25.8075 34.9774 26.4587 34.4077C26.8453 34.0821 27.3744 33.4309 27.0285 32.4338C26.9437 32.2037 26.8211 32.0277 26.6762 31.8939C27.1152 32.0659 27.5301 32.3328 27.8655 32.6563C28.2707 33.0471 28.5425 33.503 28.6201 33.9512C28.6489 34.1173 28.8068 34.2287 28.9729 34.1999C29.139 34.1712 29.2504 34.0132 29.2216 33.8471C29.1161 33.2372 28.7596 32.6705 28.2892 32.2169C27.8173 31.7618 27.2132 31.4028 26.5781 31.2154C25.9435 31.0282 25.2588 31.0074 24.6422 31.2586C24.0179 31.5129 23.499 32.0318 23.1826 32.8534C23.122 33.0107 23.2004 33.1874 23.3577 33.248ZM24.4442 32.4745H24.5866C25.0139 32.5559 25.0546 32.8408 24.9733 33.2274C24.9733 33.2478 24.9529 33.2681 24.9529 33.2681C25.0953 33.3088 25.2378 33.4309 25.2174 33.6344C25.1971 33.8786 24.8512 33.9804 24.7291 33.7972C24.668 33.7158 24.6477 33.6141 24.6477 33.5123C24.5052 33.5734 24.3221 33.5734 24.1796 33.4309C23.9558 33.2071 23.9558 32.9222 24.0576 32.6984C24.139 32.5559 24.3017 32.4949 24.4442 32.4745ZM22.3779 31.0639C22.4779 30.6469 22.6642 30.4334 22.8593 30.3134C23.0676 30.1852 23.3336 30.1346 23.6304 30.1346C23.8282 30.1346 24.0049 30.1525 24.1814 30.1878C24.1871 30.1889 24.1929 30.1899 24.1986 30.1908C24.5634 30.2476 25.4352 30.3442 26.4181 30.4532L26.4182 30.4532L26.4183 30.4532C26.6998 30.4844 26.9904 30.5167 27.2808 30.5492C28.6058 30.6979 29.9205 30.8534 30.4474 30.9607L30.4488 30.961C31.0528 31.0818 31.4398 31.3045 31.6638 31.557C31.8807 31.8015 31.9747 32.1066 31.935 32.4715L31.9346 32.4756C31.8934 32.8942 31.8662 33.2196 31.8424 33.5039V33.5039C31.7942 34.0798 31.7602 34.4868 31.6529 35.1575L31.6528 35.158C31.5751 35.6474 31.3041 35.9161 30.9827 36.071C30.6442 36.2342 30.2521 36.2658 30.0035 36.2417C28.9809 36.1165 24.0567 35.5104 23.0227 35.2917L23.0208 35.2913C22.4752 35.1787 22.1965 34.9397 22.05 34.6693C21.8942 34.3819 21.8525 33.9937 21.9166 33.5319L21.9367 33.4057C22.071 32.5603 22.1883 31.8224 22.377 31.0676L22.377 31.0676L22.3779 31.0639Z" />
  </symbol>
</svg>