<svg width="1110" height="100" viewBox="0 0 1110 100" fill="none" xmlns="http://www.w3.org/2000/svg">
<g clip-path="url(#clip0_3961_3084)">
<path fill-rule="evenodd" clip-rule="evenodd" d="M716.616 20.2539H680.464L716.616 60.3906V20.2539ZM641.851 43.8086H642.202L690.425 99.9414C699.644 99.9414 706.284 98.3203 710.347 95.0781C714.527 91.7578 716.616 86.2305 716.616 78.4961L668.628 20.2539C659.527 20.2539 652.788 22.168 648.413 25.9961C644.038 29.8242 641.851 35.7617 641.851 43.8086ZM676.831 100L642.027 59.6289V100H676.831ZM781.208 40.2344H785.719C795.329 40.2344 802.712 43.2031 807.868 49.1406C812.516 54.5312 814.841 61.6797 814.841 70.5859C814.841 79.6484 812.262 86.7578 807.106 91.9141C801.716 97.3047 794.098 100 784.255 100H781.208V40.2344ZM740.192 40.2344H771.716V119.922H740.192V40.2344ZM913.124 40.2344H880.78V76.8555C880.78 85.1367 883.026 91.0742 887.518 94.668C891.971 98.2227 899.276 100 909.432 100H913.124V40.2344ZM840.174 58.8672C839.042 62.5391 838.475 66.5234 838.475 70.8203C838.475 79.7266 841.053 86.7578 846.209 91.9141C851.6 97.3047 859.217 100 869.061 100H872.108V40.2344H867.596C857.987 40.2344 850.604 43.2031 845.448 49.1406C843.065 51.9141 841.307 55.1562 840.174 58.8672ZM979.004 40.2344H1011.35V73.6914H1007.19C997.109 73.6914 989.883 71.9531 985.508 68.4766C981.172 65 979.004 59.082 979.004 50.7227V40.2344ZM936.816 70.8203C936.816 66.5234 937.383 62.5391 938.516 58.8672C939.648 55.1562 941.406 51.9141 943.789 49.1406C948.867 43.2031 956.211 40.2344 965.82 40.2344H970.332V100H967.285C957.402 100 949.805 97.3047 944.492 91.9141C939.375 86.7969 936.816 79.7656 936.816 70.8203ZM979.004 84.707H1008.3V86.3477C1008.3 89.9805 1006.99 93.0469 1004.38 95.5469C1001.17 98.5156 996.621 100 990.723 100H979.004V84.707ZM1077.29 40.2344H1081.15C1095.92 40.2344 1104.92 45.2344 1108.17 55.2344C1109.22 58.5547 1109.75 62.4023 1109.75 66.7773V73.2227H1077.29V40.2344ZM1034.98 70.8203C1034.98 66.5234 1035.55 62.5391 1036.68 58.8672C1037.81 55.1562 1039.57 51.9141 1041.95 49.1406C1047.11 43.2031 1054.49 40.2344 1064.1 40.2344H1068.61V100H1065.57C1055.72 100 1048.11 97.3047 1042.72 91.9141C1037.56 86.7578 1034.98 79.7266 1034.98 70.8203ZM1077.29 84.707H1106.58V86.3477C1106.58 89.9805 1105.27 93.0469 1102.66 95.5469C1099.45 98.5156 1094.9 100 1089.01 100H1077.29V84.707Z" fill="black"/>
<path fill-rule="evenodd" clip-rule="evenodd" d="M368.259 24.1797C355.329 24.1797 348.864 20.1367 348.864 12.0508C348.864 7.91016 350.407 4.94141 353.493 3.14453C356.579 1.30859 361.286 0.390625 367.614 0.390625C373.942 0.390625 378.61 1.30859 381.618 3.14453C384.626 4.94141 386.13 7.92969 386.13 12.1094C386.13 16.25 384.723 19.2969 381.911 21.25C379.137 23.2031 374.587 24.1797 368.259 24.1797ZM352.145 40.293H383.669V100H352.145V40.293ZM450.838 40.2344H483.182V73.6914H479.022C468.944 73.6914 461.717 71.9531 457.342 68.4766C453.006 65 450.838 59.082 450.838 50.7227V40.2344ZM408.651 70.8203C408.651 66.5234 409.217 62.5391 410.35 58.8672C411.483 55.1562 413.241 51.9141 415.623 49.1406C420.702 43.2031 428.045 40.2344 437.655 40.2344H442.166V100H439.12C429.237 100 421.639 97.3047 416.327 91.9141C411.209 86.7969 408.651 79.7656 408.651 70.8203ZM450.838 84.707H480.135V86.3477C480.135 89.9805 478.827 93.0469 476.209 95.5469C473.006 98.5156 468.455 100 462.557 100H450.838V84.707ZM326.402 40.2344H295.113V129.883H303.023C312.515 129.883 318.98 127.344 322.417 122.266C324.058 119.844 325.132 116.934 325.64 113.535C326.148 110.137 326.402 106.348 326.402 102.168V40.2344ZM253.452 58.8672C252.32 62.5391 251.753 66.5234 251.753 70.8203C251.753 79.7266 254.331 86.7578 259.488 91.9141C264.878 97.3047 272.495 100 282.339 100H285.386V40.2344H280.874C271.265 40.2344 263.882 43.2031 258.726 49.1406C256.343 51.9141 254.585 55.1562 253.452 58.8672ZM259.546 113.887C258.726 115.254 258.316 116.797 258.316 118.516C258.316 121.797 260.034 124.453 263.472 126.484C266.714 128.398 270.757 129.355 275.601 129.355C280.288 129.355 284.116 128.398 287.085 126.484C290.171 124.492 291.714 121.816 291.714 118.457C291.714 115.137 289.995 112.5 286.558 110.547C283.277 108.672 279.273 107.734 274.546 107.734C269.82 107.734 265.952 108.672 262.945 110.547C261.499 111.445 260.366 112.559 259.546 113.887ZM195.775 40.2344H228.119V100H224.427C214.271 100 206.966 98.2227 202.513 94.668C198.021 91.0742 195.775 85.1367 195.775 76.8555V40.2344ZM153.47 70.8203C153.47 66.5234 154.037 62.5391 155.17 58.8672C156.302 55.1562 158.06 51.9141 160.443 49.1406C165.599 43.2031 172.982 40.2344 182.591 40.2344H187.103V100H184.056C174.213 100 166.595 97.3047 161.205 91.9141C156.048 86.7578 153.47 79.7266 153.47 70.8203ZM100.305 20.1953H95.0312V100H127.434V45.8008C127.434 41.6602 126.984 38.0078 126.086 34.8438C123.273 25.0781 114.68 20.1953 100.305 20.1953ZM84.1328 20.1953H51.5547V100H84.1328V20.1953ZM40.5391 20.1953H7.96094V100H40.5391V20.1953Z" fill="black"/>
</g>
<defs>
<clipPath id="clip0_3961_3084">
<rect width="1110" height="100" fill="white"/>
</clipPath>
</defs>
</svg>
