<svg width="1110" height="100" viewBox="0 0 1110 100" fill="none" xmlns="http://www.w3.org/2000/svg">
<path fill-rule="evenodd" clip-rule="evenodd" d="M716.656 19.8633H680.503L716.656 60V19.8633ZM641.89 43.418H642.241L690.464 99.5508C699.683 99.5508 706.323 97.9297 710.386 94.6875C714.566 91.3672 716.656 85.8398 716.656 78.1055L668.667 19.8633C659.566 19.8633 652.827 21.7773 648.452 25.6055C644.077 29.4336 641.89 35.3711 641.89 43.418ZM676.87 99.6094L642.066 59.2383V99.6094H676.87ZM781.247 39.8438H785.759C795.368 39.8438 802.751 42.8125 807.907 48.75C812.555 54.1406 814.88 61.2891 814.88 70.1953C814.88 79.2578 812.302 86.3672 807.145 91.5234C801.755 96.9141 794.137 99.6094 784.294 99.6094H781.247V39.8438ZM740.231 39.8438H771.755V100H740.231V39.8438ZM913.163 39.8438H880.819V76.4648C880.819 84.7461 883.065 90.6836 887.557 94.2773C892.01 97.832 899.315 99.6094 909.471 99.6094H913.163V39.8438ZM840.213 58.4766C839.081 62.1484 838.514 66.1328 838.514 70.4297C838.514 79.3359 841.092 86.3672 846.249 91.5234C851.639 96.9141 859.256 99.6094 869.1 99.6094H872.147V39.8438H867.635C858.026 39.8438 850.643 42.8125 845.487 48.75C843.104 51.5234 841.346 54.7656 840.213 58.4766ZM979.043 39.8438H1011.39V73.3008H1007.23C997.148 73.3008 989.922 71.5625 985.547 68.0859C981.211 64.6094 979.043 58.6914 979.043 50.332V39.8438ZM936.855 70.4297C936.855 66.1328 937.422 62.1484 938.555 58.4766C939.688 54.7656 941.445 51.5234 943.828 48.75C948.906 42.8125 956.25 39.8438 965.859 39.8438H970.371V99.6094H967.324C957.441 99.6094 949.844 96.9141 944.531 91.5234C939.414 86.4062 936.855 79.375 936.855 70.4297ZM979.043 84.3164H1008.34V85.957C1008.34 89.5898 1007.03 92.6562 1004.41 95.1562C1001.21 98.125 996.66 99.6094 990.762 99.6094H979.043V84.3164ZM1077.33 39.8438H1081.19C1095.96 39.8438 1104.96 44.8438 1108.2 54.8438C1109.26 58.1641 1109.79 62.0117 1109.79 66.3867V72.832H1077.33V39.8438ZM1035.02 70.4297C1035.02 66.1328 1035.59 62.1484 1036.72 58.4766C1037.85 54.7656 1039.61 51.5234 1041.99 48.75C1047.15 42.8125 1054.53 39.8438 1064.14 39.8438H1068.65V99.6094H1065.61C1055.76 99.6094 1048.15 96.9141 1042.76 91.5234C1037.6 86.3672 1035.02 79.3359 1035.02 70.4297ZM1077.33 84.3164H1106.62V85.957C1106.62 89.5898 1105.31 92.6562 1102.7 95.1562C1099.49 98.125 1094.94 99.6094 1089.04 99.6094H1077.33V84.3164Z" fill="black"/>
<path fill-rule="evenodd" clip-rule="evenodd" d="M370.298 23.7891C357.368 23.7891 350.903 19.7461 350.903 11.6602C350.903 7.51953 352.446 4.55078 355.532 2.75391C358.618 0.917969 363.325 0 369.653 0C375.981 0 380.649 0.917969 383.657 2.75391C386.665 4.55078 388.169 7.53906 388.169 11.7188C388.169 15.8594 386.762 18.9062 383.95 20.8594C381.177 22.8125 376.626 23.7891 370.298 23.7891ZM354.184 39.9023H385.708V99.6094H354.184V39.9023ZM452.877 39.8438H485.221V73.3008H481.061C470.983 73.3008 463.756 71.5625 459.381 68.0859C455.045 64.6094 452.877 58.6914 452.877 50.332V39.8438ZM410.69 70.4297C410.69 66.1328 411.256 62.1484 412.389 58.4766C413.522 54.7656 415.28 51.5234 417.662 48.75C422.741 42.8125 430.084 39.8438 439.694 39.8438H444.205V99.6094H441.159C431.276 99.6094 423.678 96.9141 418.366 91.5234C413.248 86.4062 410.69 79.375 410.69 70.4297ZM452.877 84.3164H482.174V85.957C482.174 89.5898 480.866 92.6562 478.248 95.1562C475.045 98.125 470.495 99.6094 464.596 99.6094H452.877V84.3164ZM328.441 39.8438H297.152V100H328.441V39.8438ZM255.491 58.4766C254.359 62.1484 253.792 66.1328 253.792 70.4297C253.792 79.3359 256.37 86.3672 261.527 91.5234C266.917 96.9141 274.534 99.6094 284.378 99.6094H287.425V39.8438H282.913C273.304 39.8438 265.921 42.8125 260.765 48.75C258.382 51.5234 256.624 54.7656 255.491 58.4766ZM197.814 39.8438H230.158V99.6094H226.466C216.31 99.6094 209.005 97.832 204.552 94.2773C200.06 90.6836 197.814 84.7461 197.814 76.4648V39.8438ZM155.509 70.4297C155.509 66.1328 156.076 62.1484 157.209 58.4766C158.341 54.7656 160.099 51.5234 162.482 48.75C167.638 42.8125 175.021 39.8438 184.63 39.8438H189.142V99.6094H186.095C176.252 99.6094 168.634 96.9141 163.244 91.5234C158.088 86.3672 155.509 79.3359 155.509 70.4297ZM102.344 19.8047H97.0703V99.6094H129.473V45.4102C129.473 41.2695 129.023 37.6172 128.125 34.4531C125.312 24.6875 116.719 19.8047 102.344 19.8047ZM86.1719 19.8047H53.5938V99.6094H86.1719V19.8047ZM42.5781 19.8047H10V99.6094H42.5781V19.8047Z" fill="black"/>
</svg>
