<?xml version="1.0" encoding="utf-8"?>
<!-- Generator: Adobe Illustrator 22.1.0, SVG Export Plug-In . SVG Version: 6.00 Build 0)  -->
<svg version="1.1" id="JIE" xmlns:vectornator="http://vectornator.io"
	 xmlns="http://www.w3.org/2000/svg" xmlns:xlink="http://www.w3.org/1999/xlink" x="0px" y="0px" viewBox="0 0 283.5 283.5"
	 style="enable-background:new 0 0 283.5 283.5;" xml:space="preserve">
<style type="text/css">
	.st0{fill:none;stroke:#000000;stroke-width:3;stroke-linecap:round;stroke-linejoin:round;}
	.st1{fill:none;stroke:#000000;stroke-width:2;stroke-linecap:round;stroke-linejoin:round;}
	.st2{fill:none;stroke:#000000;stroke-width:4;stroke-linecap:round;stroke-linejoin:round;}
	.st3{fill:none;stroke:#000000;stroke-width:6;stroke-linecap:round;stroke-linejoin:round;stroke-miterlimit:10;}
	.st4{fill:none;stroke:#000000;stroke-width:8;stroke-linecap:round;stroke-linejoin:round;stroke-miterlimit:10;}
</style>
<g id="me_1_">
	<path id="hair" d="M151.5,46.1c-9.2,0-18.4,1.3-26.4,3.6c-19.5,5.5-37.7,18.6-52.8,32.2c-10.8,9.7-23.4,22-26.7,36.4
		c-2.4,10.3-3,20.9-2.9,28.8c0.1,9.9,5.7,0.8,8,0.7c2.2-0.1-2.1,16.3-1.5,26.4c0.6,9.5,6.7,22.6,6.4,35.3c-0.1,4.3,3.7,4.5,4.1-2.6
		c0.6-11.8,2.4-13.3,3.5-23.3c0.6-5.7,1.2-10.9,7.7-15.9c6.5-4.9,0.8-9.6,12.9-14.7c15.9-6.8,35.2-11.6,65.5-15.5
		c16.2-2.1,23.8-0.1,31.4-4c1.1-0.5,1.7-1.3,2.4,0.1c1.5,3.1,4.8,7.8,7.6,16.4c3.5,10.8,7,26.8,2,41.5
		c-4.6,13.8-12.2,32.6-14.6,37.4c-1.1,2.2,0.7,4.2,2.7,0.9c5.8-9.2,14.8-17.8,17.8-22.7c2.9-4.7,8.6-15.4,10.2-10.4
		c1.6,5,0.6,9.6-4.7,15.3c-2.9,3.1,6.4,0.8,17.9-15.2c11.4-15.9,36.8-92.7-17.1-123.7c-1.5-0.8-1.5-1-2.5-2.7
		C192.4,52.8,171.8,46.2,151.5,46.1z M189.7,80.9c4.8-0.2,11.3,2.3,13,5c1.1,1.8-4.1,0.3-5.7,0.7c-2.1,0.5,1.6,1.1,4.6,4
		c3.1,2.9,0.2,3.4-3.4,2.4c-4.7-1.2-11.4-1.6-14.7-2c-6.7-0.9-11.7,0-9.8-1.2c3.7-2.4,18.7-1.8,17.6-2.7c-2-1.5-11.2-1.7-9.3-2.6
		c3.9-1.9,10.1,0,9-1.4c-1-1.2-5.4-1.3-3.1-1.9C188.4,81,189,81,189.7,80.9z"/>
	<path id="face_1_" class="st0" d="M61.7,186.3c1.1,5.4,1.2,18.7,8.3,27.1c10.6,12.7,26.9,20.3,40.8,23.4c15.3,3.4,47,4.1,70.1-17
		c5.2-4.7,15.3,4.5,28.8-11.9"/>
	<path id="mouth" class="st1" d="M106.3,218.3c1.6,2.6,7.8,4.3,11.6,1.8"/>
	<path id="nose" class="st1" d="M113.4,194.3c-5.4,1.5-10.1,7.5-4.2,11.3"/>
	<path id="eyebrow" class="st0" d="M105.8,155.2c-1.2-7.4-25.6-20.7-41.8-3.6 M136.5,158c6-11.4,33.5-13.3,41.6,8.9"/>
	<g id="eyes">
		<g>
			<path d="M78.2,172.7c-4,0.1-7.4,2.9-8.8,5.3c-2.1,3.7,0.4,8.7,3.7,9.9c4.2,1.5,10.1-0.5,11.2-5C85.3,179.1,84.6,172.5,78.2,172.7
				z M74.2,177.1c0.2,0,0.4,0.1,0.6,0.1c0.7,0.3,1.9,1.8,1.3,3.1c-0.2,0.4-0.5,0.8-0.8,1.1c0.4,0.2,0.9,0.6,1.1,1.2
				c0.4,1.3-1.5,2-2.2,1.1c-0.3-0.3-0.3-1.1-0.1-1.7c-0.5,0.1-1,0-1.5-0.3c-1.4-0.9-1-2.5-0.6-3.2C72.4,177.2,73.5,177,74.2,177.1z"
				/>
			<path class="st0" d="M68,179.1c7.8-11,20-7.1,25.3,3.5"/>
		</g>
		<g>
			<path d="M148.8,178.7c-0.4,0-0.8,0-1.1,0c-2.8,0.2-6.6,3-7.3,5.1c-0.8,2.1-0.9,5.3,1.4,8.1c3.1,3.7,8.6,3.9,11.8,1.1
				c1.9-1.6,4.5-4.8,2.8-9.7C155,179.5,151.5,178.7,148.8,178.7z M143.7,183.5c0.3,0,0.5,0,0.7,0c2.1,0.4,2.3,1.8,1.9,3.7
				c0,0.1-0.1,0.2-0.1,0.2c0.7,0.2,1.4,0.8,1.3,1.8c-0.1,1.2-1.8,1.7-2.4,0.8c-0.3-0.4-0.4-0.9-0.4-1.4c-0.7,0.3-1.6,0.3-2.3-0.4
				c-1.1-1.1-1.1-2.5-0.6-3.6C142.2,183.9,143,183.6,143.7,183.5z"/>
			<path class="st0" d="M138.9,185.9c5.7-14.8,25-5.8,26.8,4.6"/>
		</g>
	</g>
	<g id="glasses" vectornator:layerName="glasses">
		<path class="st2" d="M69.3,164.4c-3.4,0.2-6.5,2.3-6.7,6.7c-0.2,3.3-0.5,8.1-0.2,14.3c0.2,6.5,4.9,8.2,8.3,8.5
			c3.9,0.4,23.4,2.9,26.5,3c3.1,0.1,6.9-3.1,7.4-7.5c0.7-5.7,0.6-6.4,1-13.3c0.3-4.7-3.4-7.9-7-8.4c-4.9-0.7-23.1-2.8-27.7-3.3
			C70.3,164.4,69.8,164.4,69.3,164.4z M139.7,170c-3.3,0-6.9,1.1-8.1,6.1c-1,4-1.6,7.9-2.3,12.3c-0.7,5,0.7,9.6,7,10.9
			c5.2,1.1,29.6,4.1,34.5,4.7c3,0.3,9.3-0.7,10.3-7c0.8-5,0.8-7.2,1.4-13.3c0.5-4.6-2.4-8.3-8.9-9.6c-5.4-1.1-26.3-3.1-30.8-3.8
			C141.8,170.1,140.8,170,139.7,170z"/>
		<path class="st3" d="M107.1,174.7c6.6-1.7,16.6-0.2,22.4,3.9"/>
		<path class="st4" d="M184.7,181.2l24.4-4.9"/>
	</g>
</g>
</svg>
